<?xml version="1.0" standalone="no"?>
<!DOCTYPE svg PUBLIC "-//W3C//DTD SVG 20010904//EN"
 "http://www.w3.org/TR/2001/REC-SVG-20010904/DTD/svg10.dtd">
<svg version="1.0" xmlns="http://www.w3.org/2000/svg"
 width="700.000000pt" height="700.000000pt" viewBox="0 0 700.000000 700.000000"
 preserveAspectRatio="xMidYMid meet">
<metadata>
</metadata>
<g transform="translate(0.000000,700.000000) scale(0.100000,-0.100000)"
fill="#000000" stroke="none">
<path d="M3130 6985 c-725 -83 -1384 -370 -1935 -844 -127 -110 -337 -331
-443 -467 -403 -517 -634 -1068 -729 -1735 -25 -177 -25 -701 0 -878 95 -666
324 -1212 729 -1736 119 -155 418 -454 573 -573 524 -405 1070 -634 1736 -729
177 -25 701 -25 878 0 666 95 1212 324 1736 729 155 119 454 418 573 573 405
524 634 1070 729 1736 25 177 25 701 0 878 -95 666 -324 1212 -729 1736 -119
155 -418 454 -573 573 -521 403 -1069 634 -1726 728 -160 22 -650 28 -819 9z
m2930 -2293 c67 -50 90 -145 90 -376 l0 -158 68 9 c37 4 132 8 212 8 163 0
196 -10 227 -68 23 -44 22 -124 -2 -166 -35 -59 -75 -73 -190 -68 -55 2 -145
-1 -200 -7 l-100 -11 -3 -45 c-2 -25 4 -281 13 -570 18 -569 15 -646 -28 -723
-33 -59 -69 -82 -128 -81 -53 1 -87 19 -123 68 -20 26 -21 39 -18 294 2 260
-21 1028 -31 1038 -3 3 -85 12 -183 20 -253 20 -295 45 -295 169 0 64 21 109
64 136 29 18 43 20 142 15 61 -3 146 -9 189 -12 l79 -7 -7 221 c-6 195 -5 226
9 256 37 78 148 107 215 58z m-4518 -382 c52 -15 95 -68 102 -127 4 -26 16
-102 27 -169 25 -143 18 -185 -35 -232 -58 -51 -156 -51 -204 1 -20 21 -52
119 -52 159 0 10 -6 18 -13 18 -28 0 -367 -110 -418 -135 -119 -60 -189 -134
-189 -198 0 -30 -7 -27 197 -71 269 -58 412 -122 524 -235 84 -85 122 -152
145 -259 56 -267 -54 -465 -313 -562 -309 -116 -799 -42 -947 143 -23 29 -31
50 -34 95 -5 72 22 116 90 150 60 30 91 24 159 -30 65 -51 98 -64 205 -83 240
-42 486 6 537 105 35 68 0 182 -75 246 -45 38 -138 78 -228 99 -329 76 -410
105 -477 172 -72 72 -101 178 -83 305 20 137 78 239 182 316 88 66 160 96 408
168 85 25 198 62 250 82 137 51 180 59 242 42z m2508 -90 c47 -33 63 -90 68
-231 l4 -127 121 122 c138 138 214 186 339 212 210 44 379 -51 448 -249 43
-126 52 -209 60 -567 7 -292 13 -370 34 -510 32 -207 34 -331 6 -378 -42 -69
-161 -91 -224 -41 -38 30 -53 87 -83 314 -25 192 -28 241 -29 562 -2 361 -4
393 -30 475 -28 88 -96 110 -206 68 -159 -60 -331 -293 -422 -574 -48 -144
-64 -336 -46 -554 13 -153 12 -159 -8 -205 -18 -39 -29 -51 -68 -68 -75 -34
-161 -10 -196 54 -17 32 -37 263 -37 422 -1 77 7 226 16 330 10 115 17 320 18
520 2 182 3 338 4 347 2 27 60 87 95 98 42 12 103 4 136 -20z m-1195 -60 c237
-25 394 -110 462 -249 24 -49 28 -68 28 -146 0 -108 -21 -160 -96 -235 -75
-75 -169 -127 -595 -331 -220 -105 -401 -192 -403 -195 -9 -9 57 -89 107 -130
122 -100 256 -139 442 -131 212 10 388 76 464 174 73 95 148 104 215 28 26
-30 31 -44 31 -88 0 -106 -84 -198 -251 -276 -179 -83 -312 -114 -499 -114
-266 -1 -453 66 -606 218 -130 129 -182 255 -191 470 -15 335 96 641 301 833
159 148 335 199 591 172z"/>
<path d="M2625 3881 c-140 -34 -261 -159 -335 -344 -32 -80 -73 -223 -68 -237
3 -10 535 243 672 321 50 28 120 72 155 97 l64 45 -24 18 c-92 72 -213 110
-348 108 -47 -1 -99 -4 -116 -8z"/>
</g>
</svg>
